<?xml version="1.0"?>
<svg xmlns="http://www.w3.org/2000/svg" height="48" viewBox="0 0 48 48" width="48"><path d="M24 12v6l8-8-8-8v6c-8.84 0-16 7.16-16 16 0 3.14.92 6.05 2.48 8.52l2.92-2.92c-.89-1.67-1.4-3.57-1.4-5.6 0-6.63 5.37-12 12-12zm13.52 3.48l-2.92 2.92c.89 1.67 1.4 3.57 1.4 5.6 0 6.63-5.37 12-12 12v-6l-8 8 8 8v-6c8.84 0 16-7.16 16-16 0-3.14-.92-6.05-2.48-8.52z"/><path d="M0 0h48v48h-48z" fill="none"/>
	
	
	<metadata>
		<rdf:RDF xmlns:rdf="http://www.w3.org/1999/02/22-rdf-syntax-ns#" xmlns:rdfs="http://www.w3.org/2000/01/rdf-schema#" xmlns:dc="http://purl.org/dc/elements/1.1/">
			<rdf:Description about="https://iconscout.com/legal#licenses" dc:title="Update, Autorenew, Refresh, Reload" dc:description="Update, Autorenew, Refresh, Reload" dc:publisher="Iconscout" dc:date="2016-12-14" dc:format="image/svg+xml" dc:language="en">
				<dc:creator>
					<rdf:Bag>
						<rdf:li>Google Inc.</rdf:li>
					</rdf:Bag>
				</dc:creator>
			</rdf:Description>
		</rdf:RDF>
    </metadata></svg>
